<svg width="383" height="84" viewBox="0 0 383 84" fill="none" xmlns="http://www.w3.org/2000/svg">
<g filter="url(#filter0_d_238_603)">
<mask id="path-1-outside-1_238_603" maskUnits="userSpaceOnUse" x="20.4023" y="5.96094" width="343" height="43" fill="black">
<rect fill="white" x="20.4023" y="5.96094" width="343" height="43"/>
<path d="M22.4023 40.0009V8.50094H44.6323L44.5873 14.4409H27.9373L29.6023 12.7759L29.6473 40.0009H22.4023Z"/>
<path d="M60.9441 40.5409C58.4541 40.5409 56.1441 40.1359 54.0141 39.3259C51.9141 38.5159 50.0841 37.3759 48.5241 35.9059C46.9941 34.4359 45.7941 32.7109 44.9241 30.7309C44.0841 28.7509 43.6641 26.5909 43.6641 24.2509C43.6641 21.9109 44.0841 19.7509 44.9241 17.7709C45.7941 15.7909 47.0091 14.0659 48.5691 12.5959C50.1291 11.1259 51.9591 9.98594 54.0591 9.17594C56.1591 8.36594 58.4391 7.96094 60.8991 7.96094C63.3891 7.96094 65.6691 8.36594 67.7391 9.17594C69.8391 9.98594 71.6541 11.1259 73.1841 12.5959C74.7441 14.0659 75.9591 15.7909 76.8291 17.7709C77.6991 19.7209 78.1341 21.8809 78.1341 24.2509C78.1341 26.5909 77.6991 28.7659 76.8291 30.7759C75.9591 32.7559 74.7441 34.4809 73.1841 35.9509C71.6541 37.3909 69.8391 38.5159 67.7391 39.3259C65.6691 40.1359 63.4041 40.5409 60.9441 40.5409ZM60.8991 34.3309C62.3091 34.3309 63.5991 34.0909 64.7691 33.6109C65.9691 33.1309 67.0191 32.4409 67.9191 31.5409C68.8191 30.6409 69.5091 29.5759 69.9891 28.3459C70.4991 27.1159 70.7541 25.7509 70.7541 24.2509C70.7541 22.7509 70.4991 21.3859 69.9891 20.1559C69.5091 18.9259 68.8191 17.8609 67.9191 16.9609C67.0491 16.0609 66.0141 15.3709 64.8141 14.8909C63.6141 14.4109 62.3091 14.1709 60.8991 14.1709C59.4891 14.1709 58.1841 14.4109 56.9841 14.8909C55.8141 15.3709 54.7791 16.0609 53.8791 16.9609C52.9791 17.8609 52.2741 18.9259 51.7641 20.1559C51.2841 21.3859 51.0441 22.7509 51.0441 24.2509C51.0441 25.7209 51.2841 27.0859 51.7641 28.3459C52.2741 29.5759 52.9641 30.6409 53.8341 31.5409C54.7341 32.4409 55.7841 33.1309 56.9841 33.6109C58.1841 34.0909 59.4891 34.3309 60.8991 34.3309Z"/>
<path d="M83.186 40.4959C82.646 40.4959 82.076 40.4509 81.476 40.3609C80.906 40.2709 80.276 40.1509 79.586 40.0009L80.036 33.8359C80.456 33.9559 80.891 34.0159 81.341 34.0159C82.571 34.0159 83.531 33.5209 84.221 32.5309C84.911 31.5109 85.406 30.0559 85.706 28.1659C86.006 26.2759 86.201 23.9809 86.291 21.2809L86.741 8.50094H110.951V40.0009H103.751V12.7759L105.416 14.4409H91.511L92.996 12.6859L92.726 21.0109C92.636 24.1009 92.426 26.8459 92.096 29.2459C91.766 31.6459 91.256 33.6859 90.566 35.3659C89.876 37.0459 88.931 38.3209 87.731 39.1909C86.531 40.0609 85.016 40.4959 83.186 40.4959Z"/>
<path d="M119.898 34.0609C121.638 34.5709 123.093 34.7209 124.263 34.5109C125.463 34.2709 126.528 33.4309 127.458 31.9909L128.988 29.6959L129.663 28.9309L140.103 8.50094H147.258L133.848 33.4309C132.648 35.6809 131.223 37.4059 129.573 38.6059C127.953 39.8059 126.168 40.4809 124.218 40.6309C122.268 40.8109 120.243 40.4659 118.143 39.5959L119.898 34.0609ZM129.528 35.0059L115.308 8.50094H123.093L133.533 29.6509L129.528 35.0059Z"/>
<path d="M150.723 40.0009V8.50094H176.148V14.3059H157.968V20.7859H166.698C170.508 20.7859 173.403 21.5809 175.383 23.1709C177.393 24.7609 178.398 27.0709 178.398 30.1009C178.398 33.2209 177.288 35.6509 175.068 37.3909C172.848 39.1309 169.713 40.0009 165.663 40.0009H150.723ZM157.968 34.6009H165.258C167.118 34.6009 168.543 34.2409 169.533 33.5209C170.523 32.7709 171.018 31.6909 171.018 30.2809C171.018 27.5209 169.098 26.1409 165.258 26.1409H157.968V34.6009Z"/>
<path d="M190.65 21.1909H205.815V26.8609H190.65V21.1909ZM191.19 34.1509H208.335V40.0009H183.945V8.50094H207.75V14.3509H191.19V34.1509Z"/>
<path d="M214.224 40.0009V8.50094H228.894C232.554 8.50094 235.404 9.20594 237.444 10.6159C239.484 12.0259 240.504 14.0359 240.504 16.6459C240.504 19.2259 239.544 21.2359 237.624 22.6759C235.704 24.0859 233.154 24.7909 229.974 24.7909L230.829 22.9009C234.369 22.9009 237.114 23.6059 239.064 25.0159C241.014 26.4259 241.989 28.4659 241.989 31.1359C241.989 33.8959 240.939 36.0709 238.839 37.6609C236.769 39.2209 233.739 40.0009 229.749 40.0009H214.224ZM221.469 34.6009H229.479C231.159 34.6009 232.434 34.2709 233.304 33.6109C234.174 32.9509 234.609 31.9309 234.609 30.5509C234.609 29.2309 234.174 28.2559 233.304 27.6259C232.434 26.9659 231.159 26.6359 229.479 26.6359H221.469V34.6009ZM221.469 21.5509H228.264C229.854 21.5509 231.054 21.2359 231.864 20.6059C232.674 19.9459 233.079 18.9859 233.079 17.7259C233.079 16.4659 232.674 15.5209 231.864 14.8909C231.054 14.2309 229.854 13.9009 228.264 13.9009H221.469V21.5509Z"/>
<path d="M262.829 40.5409C260.339 40.5409 258.029 40.1359 255.899 39.3259C253.799 38.5159 251.969 37.3759 250.409 35.9059C248.879 34.4359 247.679 32.7109 246.809 30.7309C245.969 28.7509 245.549 26.5909 245.549 24.2509C245.549 21.9109 245.969 19.7509 246.809 17.7709C247.679 15.7909 248.894 14.0659 250.454 12.5959C252.014 11.1259 253.844 9.98594 255.944 9.17594C258.044 8.36594 260.324 7.96094 262.784 7.96094C265.274 7.96094 267.554 8.36594 269.624 9.17594C271.724 9.98594 273.539 11.1259 275.069 12.5959C276.629 14.0659 277.844 15.7909 278.714 17.7709C279.584 19.7209 280.019 21.8809 280.019 24.2509C280.019 26.5909 279.584 28.7659 278.714 30.7759C277.844 32.7559 276.629 34.4809 275.069 35.9509C273.539 37.3909 271.724 38.5159 269.624 39.3259C267.554 40.1359 265.289 40.5409 262.829 40.5409ZM262.784 34.3309C264.194 34.3309 265.484 34.0909 266.654 33.6109C267.854 33.1309 268.904 32.4409 269.804 31.5409C270.704 30.6409 271.394 29.5759 271.874 28.3459C272.384 27.1159 272.639 25.7509 272.639 24.2509C272.639 22.7509 272.384 21.3859 271.874 20.1559C271.394 18.9259 270.704 17.8609 269.804 16.9609C268.934 16.0609 267.899 15.3709 266.699 14.8909C265.499 14.4109 264.194 14.1709 262.784 14.1709C261.374 14.1709 260.069 14.4109 258.869 14.8909C257.699 15.3709 256.664 16.0609 255.764 16.9609C254.864 17.8609 254.159 18.9259 253.649 20.1559C253.169 21.3859 252.929 22.7509 252.929 24.2509C252.929 25.7209 253.169 27.0859 253.649 28.3459C254.159 29.5759 254.849 30.6409 255.719 31.5409C256.619 32.4409 257.669 33.1309 258.869 33.6109C260.069 34.0909 261.374 34.3309 262.784 34.3309Z"/>
<path d="M305.636 36.7609V14.4409H294.836L294.701 19.0309C294.611 20.9809 294.476 22.8259 294.296 24.5659C294.146 26.3059 293.906 27.8959 293.576 29.3359C293.246 30.7459 292.811 31.9459 292.271 32.9359C291.761 33.9259 291.116 34.6309 290.336 35.0509L282.551 34.0609C283.631 34.0909 284.516 33.7159 285.206 32.9359C285.926 32.1559 286.496 31.0609 286.916 29.6509C287.336 28.2109 287.636 26.5309 287.816 24.6109C288.026 22.6909 288.176 20.6059 288.266 18.3559L288.626 8.50094H312.836V36.7609H305.636ZM281.516 46.5259L281.561 34.0609H317.246V46.5259H310.496V40.0009H288.266V46.5259H281.516Z"/>
<path d="M337.408 18.8509C341.218 18.8509 344.158 19.7059 346.228 21.4159C348.298 23.0959 349.333 25.6309 349.333 29.0209C349.333 32.6209 348.178 35.3509 345.868 37.2109C343.588 39.0709 340.423 40.0009 336.373 40.0009H322.153V8.50094H329.398V18.8509H337.408ZM335.968 34.6009C337.828 34.6009 339.298 34.1359 340.378 33.2059C341.458 32.2759 341.998 30.9259 341.998 29.1559C341.998 27.4159 341.458 26.1709 340.378 25.4209C339.328 24.6409 337.858 24.2509 335.968 24.2509H329.398V34.6009H335.968ZM353.338 40.0009V8.50094H360.583V40.0009H353.338Z"/>
</mask>
<path d="M22.4023 40.0009V8.50094H44.6323L44.5873 14.4409H27.9373L29.6023 12.7759L29.6473 40.0009H22.4023Z" fill="white"/>
<path d="M60.9441 40.5409C58.4541 40.5409 56.1441 40.1359 54.0141 39.3259C51.9141 38.5159 50.0841 37.3759 48.5241 35.9059C46.9941 34.4359 45.7941 32.7109 44.9241 30.7309C44.0841 28.7509 43.6641 26.5909 43.6641 24.2509C43.6641 21.9109 44.0841 19.7509 44.9241 17.7709C45.7941 15.7909 47.0091 14.0659 48.5691 12.5959C50.1291 11.1259 51.9591 9.98594 54.0591 9.17594C56.1591 8.36594 58.4391 7.96094 60.8991 7.96094C63.3891 7.96094 65.6691 8.36594 67.7391 9.17594C69.8391 9.98594 71.6541 11.1259 73.1841 12.5959C74.7441 14.0659 75.9591 15.7909 76.8291 17.7709C77.6991 19.7209 78.1341 21.8809 78.1341 24.2509C78.1341 26.5909 77.6991 28.7659 76.8291 30.7759C75.9591 32.7559 74.7441 34.4809 73.1841 35.9509C71.6541 37.3909 69.8391 38.5159 67.7391 39.3259C65.6691 40.1359 63.4041 40.5409 60.9441 40.5409ZM60.8991 34.3309C62.3091 34.3309 63.5991 34.0909 64.7691 33.6109C65.9691 33.1309 67.0191 32.4409 67.9191 31.5409C68.8191 30.6409 69.5091 29.5759 69.9891 28.3459C70.4991 27.1159 70.7541 25.7509 70.7541 24.2509C70.7541 22.7509 70.4991 21.3859 69.9891 20.1559C69.5091 18.9259 68.8191 17.8609 67.9191 16.9609C67.0491 16.0609 66.0141 15.3709 64.8141 14.8909C63.6141 14.4109 62.3091 14.1709 60.8991 14.1709C59.4891 14.1709 58.1841 14.4109 56.9841 14.8909C55.8141 15.3709 54.7791 16.0609 53.8791 16.9609C52.9791 17.8609 52.2741 18.9259 51.7641 20.1559C51.2841 21.3859 51.0441 22.7509 51.0441 24.2509C51.0441 25.7209 51.2841 27.0859 51.7641 28.3459C52.2741 29.5759 52.9641 30.6409 53.8341 31.5409C54.7341 32.4409 55.7841 33.1309 56.9841 33.6109C58.1841 34.0909 59.4891 34.3309 60.8991 34.3309Z" fill="white"/>
<path d="M83.186 40.4959C82.646 40.4959 82.076 40.4509 81.476 40.3609C80.906 40.2709 80.276 40.1509 79.586 40.0009L80.036 33.8359C80.456 33.9559 80.891 34.0159 81.341 34.0159C82.571 34.0159 83.531 33.5209 84.221 32.5309C84.911 31.5109 85.406 30.0559 85.706 28.1659C86.006 26.2759 86.201 23.9809 86.291 21.2809L86.741 8.50094H110.951V40.0009H103.751V12.7759L105.416 14.4409H91.511L92.996 12.6859L92.726 21.0109C92.636 24.1009 92.426 26.8459 92.096 29.2459C91.766 31.6459 91.256 33.6859 90.566 35.3659C89.876 37.0459 88.931 38.3209 87.731 39.1909C86.531 40.0609 85.016 40.4959 83.186 40.4959Z" fill="white"/>
<path d="M119.898 34.0609C121.638 34.5709 123.093 34.7209 124.263 34.5109C125.463 34.2709 126.528 33.4309 127.458 31.9909L128.988 29.6959L129.663 28.9309L140.103 8.50094H147.258L133.848 33.4309C132.648 35.6809 131.223 37.4059 129.573 38.6059C127.953 39.8059 126.168 40.4809 124.218 40.6309C122.268 40.8109 120.243 40.4659 118.143 39.5959L119.898 34.0609ZM129.528 35.0059L115.308 8.50094H123.093L133.533 29.6509L129.528 35.0059Z" fill="white"/>
<path d="M150.723 40.0009V8.50094H176.148V14.3059H157.968V20.7859H166.698C170.508 20.7859 173.403 21.5809 175.383 23.1709C177.393 24.7609 178.398 27.0709 178.398 30.1009C178.398 33.2209 177.288 35.6509 175.068 37.3909C172.848 39.1309 169.713 40.0009 165.663 40.0009H150.723ZM157.968 34.6009H165.258C167.118 34.6009 168.543 34.2409 169.533 33.5209C170.523 32.7709 171.018 31.6909 171.018 30.2809C171.018 27.5209 169.098 26.1409 165.258 26.1409H157.968V34.6009Z" fill="white"/>
<path d="M190.65 21.1909H205.815V26.8609H190.65V21.1909ZM191.19 34.1509H208.335V40.0009H183.945V8.50094H207.75V14.3509H191.19V34.1509Z" fill="white"/>
<path d="M214.224 40.0009V8.50094H228.894C232.554 8.50094 235.404 9.20594 237.444 10.6159C239.484 12.0259 240.504 14.0359 240.504 16.6459C240.504 19.2259 239.544 21.2359 237.624 22.6759C235.704 24.0859 233.154 24.7909 229.974 24.7909L230.829 22.9009C234.369 22.9009 237.114 23.6059 239.064 25.0159C241.014 26.4259 241.989 28.4659 241.989 31.1359C241.989 33.8959 240.939 36.0709 238.839 37.6609C236.769 39.2209 233.739 40.0009 229.749 40.0009H214.224ZM221.469 34.6009H229.479C231.159 34.6009 232.434 34.2709 233.304 33.6109C234.174 32.9509 234.609 31.9309 234.609 30.5509C234.609 29.2309 234.174 28.2559 233.304 27.6259C232.434 26.9659 231.159 26.6359 229.479 26.6359H221.469V34.6009ZM221.469 21.5509H228.264C229.854 21.5509 231.054 21.2359 231.864 20.6059C232.674 19.9459 233.079 18.9859 233.079 17.7259C233.079 16.4659 232.674 15.5209 231.864 14.8909C231.054 14.2309 229.854 13.9009 228.264 13.9009H221.469V21.5509Z" fill="white"/>
<path d="M262.829 40.5409C260.339 40.5409 258.029 40.1359 255.899 39.3259C253.799 38.5159 251.969 37.3759 250.409 35.9059C248.879 34.4359 247.679 32.7109 246.809 30.7309C245.969 28.7509 245.549 26.5909 245.549 24.2509C245.549 21.9109 245.969 19.7509 246.809 17.7709C247.679 15.7909 248.894 14.0659 250.454 12.5959C252.014 11.1259 253.844 9.98594 255.944 9.17594C258.044 8.36594 260.324 7.96094 262.784 7.96094C265.274 7.96094 267.554 8.36594 269.624 9.17594C271.724 9.98594 273.539 11.1259 275.069 12.5959C276.629 14.0659 277.844 15.7909 278.714 17.7709C279.584 19.7209 280.019 21.8809 280.019 24.2509C280.019 26.5909 279.584 28.7659 278.714 30.7759C277.844 32.7559 276.629 34.4809 275.069 35.9509C273.539 37.3909 271.724 38.5159 269.624 39.3259C267.554 40.1359 265.289 40.5409 262.829 40.5409ZM262.784 34.3309C264.194 34.3309 265.484 34.0909 266.654 33.6109C267.854 33.1309 268.904 32.4409 269.804 31.5409C270.704 30.6409 271.394 29.5759 271.874 28.3459C272.384 27.1159 272.639 25.7509 272.639 24.2509C272.639 22.7509 272.384 21.3859 271.874 20.1559C271.394 18.9259 270.704 17.8609 269.804 16.9609C268.934 16.0609 267.899 15.3709 266.699 14.8909C265.499 14.4109 264.194 14.1709 262.784 14.1709C261.374 14.1709 260.069 14.4109 258.869 14.8909C257.699 15.3709 256.664 16.0609 255.764 16.9609C254.864 17.8609 254.159 18.9259 253.649 20.1559C253.169 21.3859 252.929 22.7509 252.929 24.2509C252.929 25.7209 253.169 27.0859 253.649 28.3459C254.159 29.5759 254.849 30.6409 255.719 31.5409C256.619 32.4409 257.669 33.1309 258.869 33.6109C260.069 34.0909 261.374 34.3309 262.784 34.3309Z" fill="white"/>
<path d="M305.636 36.7609V14.4409H294.836L294.701 19.0309C294.611 20.9809 294.476 22.8259 294.296 24.5659C294.146 26.3059 293.906 27.8959 293.576 29.3359C293.246 30.7459 292.811 31.9459 292.271 32.9359C291.761 33.9259 291.116 34.6309 290.336 35.0509L282.551 34.0609C283.631 34.0909 284.516 33.7159 285.206 32.9359C285.926 32.1559 286.496 31.0609 286.916 29.6509C287.336 28.2109 287.636 26.5309 287.816 24.6109C288.026 22.6909 288.176 20.6059 288.266 18.3559L288.626 8.50094H312.836V36.7609H305.636ZM281.516 46.5259L281.561 34.0609H317.246V46.5259H310.496V40.0009H288.266V46.5259H281.516Z" fill="white"/>
<path d="M337.408 18.8509C341.218 18.8509 344.158 19.7059 346.228 21.4159C348.298 23.0959 349.333 25.6309 349.333 29.0209C349.333 32.6209 348.178 35.3509 345.868 37.2109C343.588 39.0709 340.423 40.0009 336.373 40.0009H322.153V8.50094H329.398V18.8509H337.408ZM335.968 34.6009C337.828 34.6009 339.298 34.1359 340.378 33.2059C341.458 32.2759 341.998 30.9259 341.998 29.1559C341.998 27.4159 341.458 26.1709 340.378 25.4209C339.328 24.6409 337.858 24.2509 335.968 24.2509H329.398V34.6009H335.968ZM353.338 40.0009V8.50094H360.583V40.0009H353.338Z" fill="white"/>
<path d="M22.4023 40.0009V8.50094H44.6323L44.5873 14.4409H27.9373L29.6023 12.7759L29.6473 40.0009H22.4023Z" stroke="#2A335C" stroke-width="4" mask="url(#path-1-outside-1_238_603)"/>
<path d="M60.9441 40.5409C58.4541 40.5409 56.1441 40.1359 54.0141 39.3259C51.9141 38.5159 50.0841 37.3759 48.5241 35.9059C46.9941 34.4359 45.7941 32.7109 44.9241 30.7309C44.0841 28.7509 43.6641 26.5909 43.6641 24.2509C43.6641 21.9109 44.0841 19.7509 44.9241 17.7709C45.7941 15.7909 47.0091 14.0659 48.5691 12.5959C50.1291 11.1259 51.9591 9.98594 54.0591 9.17594C56.1591 8.36594 58.4391 7.96094 60.8991 7.96094C63.3891 7.96094 65.6691 8.36594 67.7391 9.17594C69.8391 9.98594 71.6541 11.1259 73.1841 12.5959C74.7441 14.0659 75.9591 15.7909 76.8291 17.7709C77.6991 19.7209 78.1341 21.8809 78.1341 24.2509C78.1341 26.5909 77.6991 28.7659 76.8291 30.7759C75.9591 32.7559 74.7441 34.4809 73.1841 35.9509C71.6541 37.3909 69.8391 38.5159 67.7391 39.3259C65.6691 40.1359 63.4041 40.5409 60.9441 40.5409ZM60.8991 34.3309C62.3091 34.3309 63.5991 34.0909 64.7691 33.6109C65.9691 33.1309 67.0191 32.4409 67.9191 31.5409C68.8191 30.6409 69.5091 29.5759 69.9891 28.3459C70.4991 27.1159 70.7541 25.7509 70.7541 24.2509C70.7541 22.7509 70.4991 21.3859 69.9891 20.1559C69.5091 18.9259 68.8191 17.8609 67.9191 16.9609C67.0491 16.0609 66.0141 15.3709 64.8141 14.8909C63.6141 14.4109 62.3091 14.1709 60.8991 14.1709C59.4891 14.1709 58.1841 14.4109 56.9841 14.8909C55.8141 15.3709 54.7791 16.0609 53.8791 16.9609C52.9791 17.8609 52.2741 18.9259 51.7641 20.1559C51.2841 21.3859 51.0441 22.7509 51.0441 24.2509C51.0441 25.7209 51.2841 27.0859 51.7641 28.3459C52.2741 29.5759 52.9641 30.6409 53.8341 31.5409C54.7341 32.4409 55.7841 33.1309 56.9841 33.6109C58.1841 34.0909 59.4891 34.3309 60.8991 34.3309Z" stroke="#2A335C" stroke-width="4" mask="url(#path-1-outside-1_238_603)"/>
<path d="M83.186 40.4959C82.646 40.4959 82.076 40.4509 81.476 40.3609C80.906 40.2709 80.276 40.1509 79.586 40.0009L80.036 33.8359C80.456 33.9559 80.891 34.0159 81.341 34.0159C82.571 34.0159 83.531 33.5209 84.221 32.5309C84.911 31.5109 85.406 30.0559 85.706 28.1659C86.006 26.2759 86.201 23.9809 86.291 21.2809L86.741 8.50094H110.951V40.0009H103.751V12.7759L105.416 14.4409H91.511L92.996 12.6859L92.726 21.0109C92.636 24.1009 92.426 26.8459 92.096 29.2459C91.766 31.6459 91.256 33.6859 90.566 35.3659C89.876 37.0459 88.931 38.3209 87.731 39.1909C86.531 40.0609 85.016 40.4959 83.186 40.4959Z" stroke="#2A335C" stroke-width="4" mask="url(#path-1-outside-1_238_603)"/>
<path d="M119.898 34.0609C121.638 34.5709 123.093 34.7209 124.263 34.5109C125.463 34.2709 126.528 33.4309 127.458 31.9909L128.988 29.6959L129.663 28.9309L140.103 8.50094H147.258L133.848 33.4309C132.648 35.6809 131.223 37.4059 129.573 38.6059C127.953 39.8059 126.168 40.4809 124.218 40.6309C122.268 40.8109 120.243 40.4659 118.143 39.5959L119.898 34.0609ZM129.528 35.0059L115.308 8.50094H123.093L133.533 29.6509L129.528 35.0059Z" stroke="#2A335C" stroke-width="4" mask="url(#path-1-outside-1_238_603)"/>
<path d="M150.723 40.0009V8.50094H176.148V14.3059H157.968V20.7859H166.698C170.508 20.7859 173.403 21.5809 175.383 23.1709C177.393 24.7609 178.398 27.0709 178.398 30.1009C178.398 33.2209 177.288 35.6509 175.068 37.3909C172.848 39.1309 169.713 40.0009 165.663 40.0009H150.723ZM157.968 34.6009H165.258C167.118 34.6009 168.543 34.2409 169.533 33.5209C170.523 32.7709 171.018 31.6909 171.018 30.2809C171.018 27.5209 169.098 26.1409 165.258 26.1409H157.968V34.6009Z" stroke="#2A335C" stroke-width="4" mask="url(#path-1-outside-1_238_603)"/>
<path d="M190.65 21.1909H205.815V26.8609H190.65V21.1909ZM191.19 34.1509H208.335V40.0009H183.945V8.50094H207.75V14.3509H191.19V34.1509Z" stroke="#2A335C" stroke-width="4" mask="url(#path-1-outside-1_238_603)"/>
<path d="M214.224 40.0009V8.50094H228.894C232.554 8.50094 235.404 9.20594 237.444 10.6159C239.484 12.0259 240.504 14.0359 240.504 16.6459C240.504 19.2259 239.544 21.2359 237.624 22.6759C235.704 24.0859 233.154 24.7909 229.974 24.7909L230.829 22.9009C234.369 22.9009 237.114 23.6059 239.064 25.0159C241.014 26.4259 241.989 28.4659 241.989 31.1359C241.989 33.8959 240.939 36.0709 238.839 37.6609C236.769 39.2209 233.739 40.0009 229.749 40.0009H214.224ZM221.469 34.6009H229.479C231.159 34.6009 232.434 34.2709 233.304 33.6109C234.174 32.9509 234.609 31.9309 234.609 30.5509C234.609 29.2309 234.174 28.2559 233.304 27.6259C232.434 26.9659 231.159 26.6359 229.479 26.6359H221.469V34.6009ZM221.469 21.5509H228.264C229.854 21.5509 231.054 21.2359 231.864 20.6059C232.674 19.9459 233.079 18.9859 233.079 17.7259C233.079 16.4659 232.674 15.5209 231.864 14.8909C231.054 14.2309 229.854 13.9009 228.264 13.9009H221.469V21.5509Z" stroke="#2A335C" stroke-width="4" mask="url(#path-1-outside-1_238_603)"/>
<path d="M262.829 40.5409C260.339 40.5409 258.029 40.1359 255.899 39.3259C253.799 38.5159 251.969 37.3759 250.409 35.9059C248.879 34.4359 247.679 32.7109 246.809 30.7309C245.969 28.7509 245.549 26.5909 245.549 24.2509C245.549 21.9109 245.969 19.7509 246.809 17.7709C247.679 15.7909 248.894 14.0659 250.454 12.5959C252.014 11.1259 253.844 9.98594 255.944 9.17594C258.044 8.36594 260.324 7.96094 262.784 7.96094C265.274 7.96094 267.554 8.36594 269.624 9.17594C271.724 9.98594 273.539 11.1259 275.069 12.5959C276.629 14.0659 277.844 15.7909 278.714 17.7709C279.584 19.7209 280.019 21.8809 280.019 24.2509C280.019 26.5909 279.584 28.7659 278.714 30.7759C277.844 32.7559 276.629 34.4809 275.069 35.9509C273.539 37.3909 271.724 38.5159 269.624 39.3259C267.554 40.1359 265.289 40.5409 262.829 40.5409ZM262.784 34.3309C264.194 34.3309 265.484 34.0909 266.654 33.6109C267.854 33.1309 268.904 32.4409 269.804 31.5409C270.704 30.6409 271.394 29.5759 271.874 28.3459C272.384 27.1159 272.639 25.7509 272.639 24.2509C272.639 22.7509 272.384 21.3859 271.874 20.1559C271.394 18.9259 270.704 17.8609 269.804 16.9609C268.934 16.0609 267.899 15.3709 266.699 14.8909C265.499 14.4109 264.194 14.1709 262.784 14.1709C261.374 14.1709 260.069 14.4109 258.869 14.8909C257.699 15.3709 256.664 16.0609 255.764 16.9609C254.864 17.8609 254.159 18.9259 253.649 20.1559C253.169 21.3859 252.929 22.7509 252.929 24.2509C252.929 25.7209 253.169 27.0859 253.649 28.3459C254.159 29.5759 254.849 30.6409 255.719 31.5409C256.619 32.4409 257.669 33.1309 258.869 33.6109C260.069 34.0909 261.374 34.3309 262.784 34.3309Z" stroke="#2A335C" stroke-width="4" mask="url(#path-1-outside-1_238_603)"/>
<path d="M305.636 36.7609V14.4409H294.836L294.701 19.0309C294.611 20.9809 294.476 22.8259 294.296 24.5659C294.146 26.3059 293.906 27.8959 293.576 29.3359C293.246 30.7459 292.811 31.9459 292.271 32.9359C291.761 33.9259 291.116 34.6309 290.336 35.0509L282.551 34.0609C283.631 34.0909 284.516 33.7159 285.206 32.9359C285.926 32.1559 286.496 31.0609 286.916 29.6509C287.336 28.2109 287.636 26.5309 287.816 24.6109C288.026 22.6909 288.176 20.6059 288.266 18.3559L288.626 8.50094H312.836V36.7609H305.636ZM281.516 46.5259L281.561 34.0609H317.246V46.5259H310.496V40.0009H288.266V46.5259H281.516Z" stroke="#2A335C" stroke-width="4" mask="url(#path-1-outside-1_238_603)"/>
<path d="M337.408 18.8509C341.218 18.8509 344.158 19.7059 346.228 21.4159C348.298 23.0959 349.333 25.6309 349.333 29.0209C349.333 32.6209 348.178 35.3509 345.868 37.2109C343.588 39.0709 340.423 40.0009 336.373 40.0009H322.153V8.50094H329.398V18.8509H337.408ZM335.968 34.6009C337.828 34.6009 339.298 34.1359 340.378 33.2059C341.458 32.2759 341.998 30.9259 341.998 29.1559C341.998 27.4159 341.458 26.1709 340.378 25.4209C339.328 24.6409 337.858 24.2509 335.968 24.2509H329.398V34.6009H335.968ZM353.338 40.0009V8.50094H360.583V40.0009H353.338Z" stroke="#2A335C" stroke-width="4" mask="url(#path-1-outside-1_238_603)"/>
</g>
<defs>
<filter id="filter0_d_238_603" x="0.402283" y="0.960938" width="382.181" height="82.5645" filterUnits="userSpaceOnUse" color-interpolation-filters="sRGB">
<feFlood flood-opacity="0" result="BackgroundImageFix"/>
<feColorMatrix in="SourceAlpha" type="matrix" values="0 0 0 0 0 0 0 0 0 0 0 0 0 0 0 0 0 0 127 0" result="hardAlpha"/>
<feOffset dy="15"/>
<feGaussianBlur stdDeviation="10"/>
<feColorMatrix type="matrix" values="0 0 0 0 0 0 0 0 0 0 0 0 0 0 0 0 0 0 0.05 0"/>
<feBlend mode="normal" in2="BackgroundImageFix" result="effect1_dropShadow_238_603"/>
<feBlend mode="normal" in="SourceGraphic" in2="effect1_dropShadow_238_603" result="shape"/>
</filter>
</defs>
</svg>
