<svg width="332" height="78" viewBox="0 0 332 78" fill="none" xmlns="http://www.w3.org/2000/svg">
<g filter="url(#filter0_d_238_602)">
<mask id="path-1-outside-1_238_602" maskUnits="userSpaceOnUse" x="20.017" y="5.96094" width="292" height="37" fill="black">
<rect fill="white" x="20.017" y="5.96094" width="292" height="37"/>
<path d="M22.017 40.0009V8.50094H44.247L44.202 14.4409H27.552L29.217 12.7759L29.262 40.0009H22.017Z"/>
<path d="M60.5588 40.5409C58.0688 40.5409 55.7588 40.1359 53.6288 39.3259C51.5288 38.5159 49.6988 37.3759 48.1388 35.9059C46.6088 34.4359 45.4088 32.7109 44.5388 30.7309C43.6988 28.7509 43.2788 26.5909 43.2788 24.2509C43.2788 21.9109 43.6988 19.7509 44.5388 17.7709C45.4088 15.7909 46.6238 14.0659 48.1838 12.5959C49.7438 11.1259 51.5738 9.98594 53.6738 9.17594C55.7738 8.36594 58.0538 7.96094 60.5138 7.96094C63.0038 7.96094 65.2838 8.36594 67.3538 9.17594C69.4538 9.98594 71.2688 11.1259 72.7988 12.5959C74.3588 14.0659 75.5738 15.7909 76.4438 17.7709C77.3138 19.7209 77.7488 21.8809 77.7488 24.2509C77.7488 26.5909 77.3138 28.7659 76.4438 30.7759C75.5738 32.7559 74.3588 34.4809 72.7988 35.9509C71.2688 37.3909 69.4538 38.5159 67.3538 39.3259C65.2838 40.1359 63.0188 40.5409 60.5588 40.5409ZM60.5138 34.3309C61.9238 34.3309 63.2138 34.0909 64.3838 33.6109C65.5838 33.1309 66.6338 32.4409 67.5338 31.5409C68.4338 30.6409 69.1238 29.5759 69.6038 28.3459C70.1138 27.1159 70.3688 25.7509 70.3688 24.2509C70.3688 22.7509 70.1138 21.3859 69.6038 20.1559C69.1238 18.9259 68.4338 17.8609 67.5338 16.9609C66.6638 16.0609 65.6288 15.3709 64.4288 14.8909C63.2288 14.4109 61.9238 14.1709 60.5138 14.1709C59.1038 14.1709 57.7988 14.4109 56.5988 14.8909C55.4288 15.3709 54.3938 16.0609 53.4938 16.9609C52.5938 17.8609 51.8888 18.9259 51.3788 20.1559C50.8988 21.3859 50.6588 22.7509 50.6588 24.2509C50.6588 25.7209 50.8988 27.0859 51.3788 28.3459C51.8888 29.5759 52.5788 30.6409 53.4488 31.5409C54.3488 32.4409 55.3988 33.1309 56.5988 33.6109C57.7988 34.0909 59.1038 34.3309 60.5138 34.3309Z"/>
<path d="M82.8008 40.4959C82.2608 40.4959 81.6908 40.4509 81.0908 40.3609C80.5208 40.2709 79.8908 40.1509 79.2008 40.0009L79.6508 33.8359C80.0708 33.9559 80.5058 34.0159 80.9558 34.0159C82.1858 34.0159 83.1458 33.5209 83.8358 32.5309C84.5258 31.5109 85.0208 30.0559 85.3208 28.1659C85.6208 26.2759 85.8158 23.9809 85.9058 21.2809L86.3558 8.50094H110.566V40.0009H103.366V12.7759L105.031 14.4409H91.1258L92.6108 12.6859L92.3408 21.0109C92.2508 24.1009 92.0408 26.8459 91.7108 29.2459C91.3808 31.6459 90.8708 33.6859 90.1808 35.3659C89.4908 37.0459 88.5458 38.3209 87.3458 39.1909C86.1458 40.0609 84.6308 40.4959 82.8008 40.4959Z"/>
<path d="M119.513 34.0609C121.253 34.5709 122.708 34.7209 123.878 34.5109C125.078 34.2709 126.143 33.4309 127.073 31.9909L128.603 29.6959L129.278 28.9309L139.718 8.50094H146.873L133.463 33.4309C132.263 35.6809 130.838 37.4059 129.188 38.6059C127.568 39.8059 125.783 40.4809 123.833 40.6309C121.883 40.8109 119.858 40.4659 117.758 39.5959L119.513 34.0609ZM129.143 35.0059L114.923 8.50094H122.708L133.148 29.6509L129.143 35.0059Z"/>
<path d="M150.337 40.0009V8.50094H175.762V14.3059H157.582V20.7859H166.312C170.122 20.7859 173.017 21.5809 174.997 23.1709C177.007 24.7609 178.012 27.0709 178.012 30.1009C178.012 33.2209 176.902 35.6509 174.682 37.3909C172.462 39.1309 169.327 40.0009 165.277 40.0009H150.337ZM157.582 34.6009H164.872C166.732 34.6009 168.157 34.2409 169.147 33.5209C170.137 32.7709 170.632 31.6909 170.632 30.2809C170.632 27.5209 168.712 26.1409 164.872 26.1409H157.582V34.6009Z"/>
<path d="M200.328 40.0009V30.0559L202.128 31.6309H193.488C190.758 31.6309 188.403 31.1809 186.423 30.2809C184.443 29.3809 182.928 28.0759 181.878 26.3659C180.828 24.6559 180.303 22.6159 180.303 20.2459C180.303 17.7859 180.858 15.6859 181.968 13.9459C183.108 12.1759 184.698 10.8259 186.738 9.89594C188.778 8.96594 191.178 8.50094 193.938 8.50094H207.528V40.0009H200.328ZM180.393 40.0009L188.223 28.7059H195.603L188.088 40.0009H180.393ZM200.328 27.7159V12.5509L202.128 14.4409H194.118C192.048 14.4409 190.458 14.9209 189.348 15.8809C188.268 16.8409 187.728 18.2659 187.728 20.1559C187.728 21.9859 188.253 23.3959 189.303 24.3859C190.353 25.3759 191.898 25.8709 193.938 25.8709H202.128L200.328 27.7159Z"/>
<path d="M222.215 40.0009V12.7759L223.88 14.4409H212.18V8.50094H239.495V14.4409H227.795L229.415 12.7759V40.0009H222.215Z"/>
<path d="M265.673 8.50094H272.963V40.0009H265.673V8.50094ZM251.363 40.0009H244.073V8.50094H251.363V40.0009ZM266.213 27.0859H250.823V20.9209H266.213V27.0859Z"/>
<path d="M280.855 40.0009V8.50094H288.1V29.0209L303.13 8.50094H309.97V40.0009H302.77V19.5259L287.74 40.0009H280.855Z"/>
</mask>
<path d="M22.017 40.0009V8.50094H44.247L44.202 14.4409H27.552L29.217 12.7759L29.262 40.0009H22.017Z" fill="white"/>
<path d="M60.5588 40.5409C58.0688 40.5409 55.7588 40.1359 53.6288 39.3259C51.5288 38.5159 49.6988 37.3759 48.1388 35.9059C46.6088 34.4359 45.4088 32.7109 44.5388 30.7309C43.6988 28.7509 43.2788 26.5909 43.2788 24.2509C43.2788 21.9109 43.6988 19.7509 44.5388 17.7709C45.4088 15.7909 46.6238 14.0659 48.1838 12.5959C49.7438 11.1259 51.5738 9.98594 53.6738 9.17594C55.7738 8.36594 58.0538 7.96094 60.5138 7.96094C63.0038 7.96094 65.2838 8.36594 67.3538 9.17594C69.4538 9.98594 71.2688 11.1259 72.7988 12.5959C74.3588 14.0659 75.5738 15.7909 76.4438 17.7709C77.3138 19.7209 77.7488 21.8809 77.7488 24.2509C77.7488 26.5909 77.3138 28.7659 76.4438 30.7759C75.5738 32.7559 74.3588 34.4809 72.7988 35.9509C71.2688 37.3909 69.4538 38.5159 67.3538 39.3259C65.2838 40.1359 63.0188 40.5409 60.5588 40.5409ZM60.5138 34.3309C61.9238 34.3309 63.2138 34.0909 64.3838 33.6109C65.5838 33.1309 66.6338 32.4409 67.5338 31.5409C68.4338 30.6409 69.1238 29.5759 69.6038 28.3459C70.1138 27.1159 70.3688 25.7509 70.3688 24.2509C70.3688 22.7509 70.1138 21.3859 69.6038 20.1559C69.1238 18.9259 68.4338 17.8609 67.5338 16.9609C66.6638 16.0609 65.6288 15.3709 64.4288 14.8909C63.2288 14.4109 61.9238 14.1709 60.5138 14.1709C59.1038 14.1709 57.7988 14.4109 56.5988 14.8909C55.4288 15.3709 54.3938 16.0609 53.4938 16.9609C52.5938 17.8609 51.8888 18.9259 51.3788 20.1559C50.8988 21.3859 50.6588 22.7509 50.6588 24.2509C50.6588 25.7209 50.8988 27.0859 51.3788 28.3459C51.8888 29.5759 52.5788 30.6409 53.4488 31.5409C54.3488 32.4409 55.3988 33.1309 56.5988 33.6109C57.7988 34.0909 59.1038 34.3309 60.5138 34.3309Z" fill="white"/>
<path d="M82.8008 40.4959C82.2608 40.4959 81.6908 40.4509 81.0908 40.3609C80.5208 40.2709 79.8908 40.1509 79.2008 40.0009L79.6508 33.8359C80.0708 33.9559 80.5058 34.0159 80.9558 34.0159C82.1858 34.0159 83.1458 33.5209 83.8358 32.5309C84.5258 31.5109 85.0208 30.0559 85.3208 28.1659C85.6208 26.2759 85.8158 23.9809 85.9058 21.2809L86.3558 8.50094H110.566V40.0009H103.366V12.7759L105.031 14.4409H91.1258L92.6108 12.6859L92.3408 21.0109C92.2508 24.1009 92.0408 26.8459 91.7108 29.2459C91.3808 31.6459 90.8708 33.6859 90.1808 35.3659C89.4908 37.0459 88.5458 38.3209 87.3458 39.1909C86.1458 40.0609 84.6308 40.4959 82.8008 40.4959Z" fill="white"/>
<path d="M119.513 34.0609C121.253 34.5709 122.708 34.7209 123.878 34.5109C125.078 34.2709 126.143 33.4309 127.073 31.9909L128.603 29.6959L129.278 28.9309L139.718 8.50094H146.873L133.463 33.4309C132.263 35.6809 130.838 37.4059 129.188 38.6059C127.568 39.8059 125.783 40.4809 123.833 40.6309C121.883 40.8109 119.858 40.4659 117.758 39.5959L119.513 34.0609ZM129.143 35.0059L114.923 8.50094H122.708L133.148 29.6509L129.143 35.0059Z" fill="white"/>
<path d="M150.337 40.0009V8.50094H175.762V14.3059H157.582V20.7859H166.312C170.122 20.7859 173.017 21.5809 174.997 23.1709C177.007 24.7609 178.012 27.0709 178.012 30.1009C178.012 33.2209 176.902 35.6509 174.682 37.3909C172.462 39.1309 169.327 40.0009 165.277 40.0009H150.337ZM157.582 34.6009H164.872C166.732 34.6009 168.157 34.2409 169.147 33.5209C170.137 32.7709 170.632 31.6909 170.632 30.2809C170.632 27.5209 168.712 26.1409 164.872 26.1409H157.582V34.6009Z" fill="white"/>
<path d="M200.328 40.0009V30.0559L202.128 31.6309H193.488C190.758 31.6309 188.403 31.1809 186.423 30.2809C184.443 29.3809 182.928 28.0759 181.878 26.3659C180.828 24.6559 180.303 22.6159 180.303 20.2459C180.303 17.7859 180.858 15.6859 181.968 13.9459C183.108 12.1759 184.698 10.8259 186.738 9.89594C188.778 8.96594 191.178 8.50094 193.938 8.50094H207.528V40.0009H200.328ZM180.393 40.0009L188.223 28.7059H195.603L188.088 40.0009H180.393ZM200.328 27.7159V12.5509L202.128 14.4409H194.118C192.048 14.4409 190.458 14.9209 189.348 15.8809C188.268 16.8409 187.728 18.2659 187.728 20.1559C187.728 21.9859 188.253 23.3959 189.303 24.3859C190.353 25.3759 191.898 25.8709 193.938 25.8709H202.128L200.328 27.7159Z" fill="white"/>
<path d="M222.215 40.0009V12.7759L223.88 14.4409H212.18V8.50094H239.495V14.4409H227.795L229.415 12.7759V40.0009H222.215Z" fill="white"/>
<path d="M265.673 8.50094H272.963V40.0009H265.673V8.50094ZM251.363 40.0009H244.073V8.50094H251.363V40.0009ZM266.213 27.0859H250.823V20.9209H266.213V27.0859Z" fill="white"/>
<path d="M280.855 40.0009V8.50094H288.1V29.0209L303.13 8.50094H309.97V40.0009H302.77V19.5259L287.74 40.0009H280.855Z" fill="white"/>
<path d="M22.017 40.0009V8.50094H44.247L44.202 14.4409H27.552L29.217 12.7759L29.262 40.0009H22.017Z" stroke="#2A335C" stroke-width="4" mask="url(#path-1-outside-1_238_602)"/>
<path d="M60.5588 40.5409C58.0688 40.5409 55.7588 40.1359 53.6288 39.3259C51.5288 38.5159 49.6988 37.3759 48.1388 35.9059C46.6088 34.4359 45.4088 32.7109 44.5388 30.7309C43.6988 28.7509 43.2788 26.5909 43.2788 24.2509C43.2788 21.9109 43.6988 19.7509 44.5388 17.7709C45.4088 15.7909 46.6238 14.0659 48.1838 12.5959C49.7438 11.1259 51.5738 9.98594 53.6738 9.17594C55.7738 8.36594 58.0538 7.96094 60.5138 7.96094C63.0038 7.96094 65.2838 8.36594 67.3538 9.17594C69.4538 9.98594 71.2688 11.1259 72.7988 12.5959C74.3588 14.0659 75.5738 15.7909 76.4438 17.7709C77.3138 19.7209 77.7488 21.8809 77.7488 24.2509C77.7488 26.5909 77.3138 28.7659 76.4438 30.7759C75.5738 32.7559 74.3588 34.4809 72.7988 35.9509C71.2688 37.3909 69.4538 38.5159 67.3538 39.3259C65.2838 40.1359 63.0188 40.5409 60.5588 40.5409ZM60.5138 34.3309C61.9238 34.3309 63.2138 34.0909 64.3838 33.6109C65.5838 33.1309 66.6338 32.4409 67.5338 31.5409C68.4338 30.6409 69.1238 29.5759 69.6038 28.3459C70.1138 27.1159 70.3688 25.7509 70.3688 24.2509C70.3688 22.7509 70.1138 21.3859 69.6038 20.1559C69.1238 18.9259 68.4338 17.8609 67.5338 16.9609C66.6638 16.0609 65.6288 15.3709 64.4288 14.8909C63.2288 14.4109 61.9238 14.1709 60.5138 14.1709C59.1038 14.1709 57.7988 14.4109 56.5988 14.8909C55.4288 15.3709 54.3938 16.0609 53.4938 16.9609C52.5938 17.8609 51.8888 18.9259 51.3788 20.1559C50.8988 21.3859 50.6588 22.7509 50.6588 24.2509C50.6588 25.7209 50.8988 27.0859 51.3788 28.3459C51.8888 29.5759 52.5788 30.6409 53.4488 31.5409C54.3488 32.4409 55.3988 33.1309 56.5988 33.6109C57.7988 34.0909 59.1038 34.3309 60.5138 34.3309Z" stroke="#2A335C" stroke-width="4" mask="url(#path-1-outside-1_238_602)"/>
<path d="M82.8008 40.4959C82.2608 40.4959 81.6908 40.4509 81.0908 40.3609C80.5208 40.2709 79.8908 40.1509 79.2008 40.0009L79.6508 33.8359C80.0708 33.9559 80.5058 34.0159 80.9558 34.0159C82.1858 34.0159 83.1458 33.5209 83.8358 32.5309C84.5258 31.5109 85.0208 30.0559 85.3208 28.1659C85.6208 26.2759 85.8158 23.9809 85.9058 21.2809L86.3558 8.50094H110.566V40.0009H103.366V12.7759L105.031 14.4409H91.1258L92.6108 12.6859L92.3408 21.0109C92.2508 24.1009 92.0408 26.8459 91.7108 29.2459C91.3808 31.6459 90.8708 33.6859 90.1808 35.3659C89.4908 37.0459 88.5458 38.3209 87.3458 39.1909C86.1458 40.0609 84.6308 40.4959 82.8008 40.4959Z" stroke="#2A335C" stroke-width="4" mask="url(#path-1-outside-1_238_602)"/>
<path d="M119.513 34.0609C121.253 34.5709 122.708 34.7209 123.878 34.5109C125.078 34.2709 126.143 33.4309 127.073 31.9909L128.603 29.6959L129.278 28.9309L139.718 8.50094H146.873L133.463 33.4309C132.263 35.6809 130.838 37.4059 129.188 38.6059C127.568 39.8059 125.783 40.4809 123.833 40.6309C121.883 40.8109 119.858 40.4659 117.758 39.5959L119.513 34.0609ZM129.143 35.0059L114.923 8.50094H122.708L133.148 29.6509L129.143 35.0059Z" stroke="#2A335C" stroke-width="4" mask="url(#path-1-outside-1_238_602)"/>
<path d="M150.337 40.0009V8.50094H175.762V14.3059H157.582V20.7859H166.312C170.122 20.7859 173.017 21.5809 174.997 23.1709C177.007 24.7609 178.012 27.0709 178.012 30.1009C178.012 33.2209 176.902 35.6509 174.682 37.3909C172.462 39.1309 169.327 40.0009 165.277 40.0009H150.337ZM157.582 34.6009H164.872C166.732 34.6009 168.157 34.2409 169.147 33.5209C170.137 32.7709 170.632 31.6909 170.632 30.2809C170.632 27.5209 168.712 26.1409 164.872 26.1409H157.582V34.6009Z" stroke="#2A335C" stroke-width="4" mask="url(#path-1-outside-1_238_602)"/>
<path d="M200.328 40.0009V30.0559L202.128 31.6309H193.488C190.758 31.6309 188.403 31.1809 186.423 30.2809C184.443 29.3809 182.928 28.0759 181.878 26.3659C180.828 24.6559 180.303 22.6159 180.303 20.2459C180.303 17.7859 180.858 15.6859 181.968 13.9459C183.108 12.1759 184.698 10.8259 186.738 9.89594C188.778 8.96594 191.178 8.50094 193.938 8.50094H207.528V40.0009H200.328ZM180.393 40.0009L188.223 28.7059H195.603L188.088 40.0009H180.393ZM200.328 27.7159V12.5509L202.128 14.4409H194.118C192.048 14.4409 190.458 14.9209 189.348 15.8809C188.268 16.8409 187.728 18.2659 187.728 20.1559C187.728 21.9859 188.253 23.3959 189.303 24.3859C190.353 25.3759 191.898 25.8709 193.938 25.8709H202.128L200.328 27.7159Z" stroke="#2A335C" stroke-width="4" mask="url(#path-1-outside-1_238_602)"/>
<path d="M222.215 40.0009V12.7759L223.88 14.4409H212.18V8.50094H239.495V14.4409H227.795L229.415 12.7759V40.0009H222.215Z" stroke="#2A335C" stroke-width="4" mask="url(#path-1-outside-1_238_602)"/>
<path d="M265.673 8.50094H272.963V40.0009H265.673V8.50094ZM251.363 40.0009H244.073V8.50094H251.363V40.0009ZM266.213 27.0859H250.823V20.9209H266.213V27.0859Z" stroke="#2A335C" stroke-width="4" mask="url(#path-1-outside-1_238_602)"/>
<path d="M280.855 40.0009V8.50094H288.1V29.0209L303.13 8.50094H309.97V40.0009H302.77V19.5259L287.74 40.0009H280.855Z" stroke="#2A335C" stroke-width="4" mask="url(#path-1-outside-1_238_602)"/>
</g>
<defs>
<filter id="filter0_d_238_602" x="0.0170288" y="0.960938" width="331.953" height="76.7168" filterUnits="userSpaceOnUse" color-interpolation-filters="sRGB">
<feFlood flood-opacity="0" result="BackgroundImageFix"/>
<feColorMatrix in="SourceAlpha" type="matrix" values="0 0 0 0 0 0 0 0 0 0 0 0 0 0 0 0 0 0 127 0" result="hardAlpha"/>
<feOffset dy="15"/>
<feGaussianBlur stdDeviation="10"/>
<feColorMatrix type="matrix" values="0 0 0 0 0 0 0 0 0 0 0 0 0 0 0 0 0 0 0.05 0"/>
<feBlend mode="normal" in2="BackgroundImageFix" result="effect1_dropShadow_238_602"/>
<feBlend mode="normal" in="SourceGraphic" in2="effect1_dropShadow_238_602" result="shape"/>
</filter>
</defs>
</svg>
